<mxfile host="Electron" modified="2024-06-20T07:41:38.331Z" agent="Mozilla/5.0 (Windows NT 10.0; Win64; x64) AppleWebKit/537.36 (KHTML, like Gecko) draw.io/23.1.5 Chrome/120.0.6099.109 Electron/28.1.0 Safari/537.36" etag="ure3541vbDP7SlHa30Us" version="23.1.5" type="device">
  <diagram name="Page-1" id="qzg9PmfZhn29sivQEg1u">
    <mxGraphModel dx="868" dy="566" grid="1" gridSize="10" guides="1" tooltips="1" connect="1" arrows="1" fold="1" page="1" pageScale="1" pageWidth="827" pageHeight="1169" math="0" shadow="0">
      <root>
        <mxCell id="0" />
        <mxCell id="1" parent="0" />
        <mxCell id="TdmkNz0lsqDMiO6AGIUz-6" value="MCU" style="shape=umlLifeline;perimeter=lifelinePerimeter;whiteSpace=wrap;html=1;container=1;dropTarget=0;collapsible=0;recursiveResize=0;outlineConnect=0;portConstraint=eastwest;newEdgeStyle={&quot;curved&quot;:0,&quot;rounded&quot;:0};" vertex="1" parent="1">
          <mxGeometry x="344.40999999999997" y="100" width="100" height="500" as="geometry" />
        </mxCell>
        <mxCell id="TdmkNz0lsqDMiO6AGIUz-9" value="" style="html=1;points=[[0,0,0,0,5],[0,1,0,0,-5],[1,0,0,0,5],[1,1,0,0,-5]];perimeter=orthogonalPerimeter;outlineConnect=0;targetShapes=umlLifeline;portConstraint=eastwest;newEdgeStyle={&quot;curved&quot;:0,&quot;rounded&quot;:0};labelPosition=right;verticalLabelPosition=middle;align=left;verticalAlign=middle;" vertex="1" parent="TdmkNz0lsqDMiO6AGIUz-6">
          <mxGeometry x="45" y="90" width="10" height="90" as="geometry" />
        </mxCell>
        <mxCell id="TdmkNz0lsqDMiO6AGIUz-13" value="" style="endArrow=none;html=1;rounded=0;elbow=vertical;startArrow=classic;startFill=1;endFill=0;dashed=1;" edge="1" parent="TdmkNz0lsqDMiO6AGIUz-6" source="TdmkNz0lsqDMiO6AGIUz-9" target="TdmkNz0lsqDMiO6AGIUz-9">
          <mxGeometry width="50" height="50" relative="1" as="geometry">
            <mxPoint x="45" y="80" as="sourcePoint" />
            <mxPoint x="45" y="125" as="targetPoint" />
            <Array as="points">
              <mxPoint x="16" y="105" />
              <mxPoint x="16" y="125" />
              <mxPoint x="16" y="150" />
            </Array>
          </mxGeometry>
        </mxCell>
        <mxCell id="TdmkNz0lsqDMiO6AGIUz-14" value="Failed" style="edgeLabel;html=1;align=center;verticalAlign=middle;resizable=0;points=[];" vertex="1" connectable="0" parent="TdmkNz0lsqDMiO6AGIUz-13">
          <mxGeometry x="0.0148" y="1" relative="1" as="geometry">
            <mxPoint as="offset" />
          </mxGeometry>
        </mxCell>
        <mxCell id="TdmkNz0lsqDMiO6AGIUz-20" value="" style="html=1;points=[[0,0,0,0,5],[0,1,0,0,-5],[1,0,0,0,5],[1,1,0,0,-5]];perimeter=orthogonalPerimeter;outlineConnect=0;targetShapes=umlLifeline;portConstraint=eastwest;newEdgeStyle={&quot;curved&quot;:0,&quot;rounded&quot;:0};labelPosition=right;verticalLabelPosition=middle;align=left;verticalAlign=middle;" vertex="1" parent="TdmkNz0lsqDMiO6AGIUz-6">
          <mxGeometry x="45" y="200" width="10" height="90" as="geometry" />
        </mxCell>
        <mxCell id="TdmkNz0lsqDMiO6AGIUz-21" value="" style="endArrow=none;html=1;rounded=0;elbow=vertical;startArrow=classic;startFill=1;endFill=0;dashed=1;" edge="1" source="TdmkNz0lsqDMiO6AGIUz-20" target="TdmkNz0lsqDMiO6AGIUz-20" parent="TdmkNz0lsqDMiO6AGIUz-6">
          <mxGeometry width="50" height="50" relative="1" as="geometry">
            <mxPoint x="45" y="190" as="sourcePoint" />
            <mxPoint x="45" y="235" as="targetPoint" />
            <Array as="points">
              <mxPoint x="16" y="215" />
              <mxPoint x="16" y="235" />
              <mxPoint x="16" y="270" />
            </Array>
          </mxGeometry>
        </mxCell>
        <mxCell id="TdmkNz0lsqDMiO6AGIUz-22" value="Failed" style="edgeLabel;html=1;align=center;verticalAlign=middle;resizable=0;points=[];" vertex="1" connectable="0" parent="TdmkNz0lsqDMiO6AGIUz-21">
          <mxGeometry x="0.0148" y="1" relative="1" as="geometry">
            <mxPoint as="offset" />
          </mxGeometry>
        </mxCell>
        <mxCell id="TdmkNz0lsqDMiO6AGIUz-10" value="" style="html=1;points=[[0,0,0,0,5],[0,1,0,0,-5],[1,0,0,0,5],[1,1,0,0,-5]];perimeter=orthogonalPerimeter;outlineConnect=0;targetShapes=umlLifeline;portConstraint=eastwest;newEdgeStyle={&quot;curved&quot;:0,&quot;rounded&quot;:0};" vertex="1" parent="TdmkNz0lsqDMiO6AGIUz-6">
          <mxGeometry x="45" y="320" width="10" height="140" as="geometry" />
        </mxCell>
        <mxCell id="TdmkNz0lsqDMiO6AGIUz-7" value="Device State" style="shape=umlLifeline;perimeter=lifelinePerimeter;whiteSpace=wrap;html=1;container=1;dropTarget=0;collapsible=0;recursiveResize=0;outlineConnect=0;portConstraint=eastwest;newEdgeStyle={&quot;curved&quot;:0,&quot;rounded&quot;:0};participant=umlControl;labelPosition=center;verticalLabelPosition=top;align=center;verticalAlign=bottom;" vertex="1" parent="1">
          <mxGeometry x="190" y="110" width="40" height="490" as="geometry" />
        </mxCell>
        <mxCell id="TdmkNz0lsqDMiO6AGIUz-8" value="Disconnected" style="html=1;points=[[0,0,0,0,5],[0,1,0,0,-5],[1,0,0,0,5],[1,1,0,0,-5]];perimeter=orthogonalPerimeter;outlineConnect=0;targetShapes=umlLifeline;portConstraint=eastwest;newEdgeStyle={&quot;curved&quot;:0,&quot;rounded&quot;:0};labelPosition=left;verticalLabelPosition=middle;align=right;verticalAlign=middle;" vertex="1" parent="TdmkNz0lsqDMiO6AGIUz-7">
          <mxGeometry x="15" y="50" width="10" height="30" as="geometry" />
        </mxCell>
        <mxCell id="TdmkNz0lsqDMiO6AGIUz-16" value="Connected" style="html=1;points=[[0,0,0,0,5],[0,1,0,0,-5],[1,0,0,0,5],[1,1,0,0,-5]];perimeter=orthogonalPerimeter;outlineConnect=0;targetShapes=umlLifeline;portConstraint=eastwest;newEdgeStyle={&quot;curved&quot;:0,&quot;rounded&quot;:0};labelPosition=left;verticalLabelPosition=middle;align=right;verticalAlign=middle;" vertex="1" parent="TdmkNz0lsqDMiO6AGIUz-7">
          <mxGeometry x="15" y="160" width="10" height="30" as="geometry" />
        </mxCell>
        <mxCell id="TdmkNz0lsqDMiO6AGIUz-23" value="Running" style="html=1;points=[[0,0,0,0,5],[0,1,0,0,-5],[1,0,0,0,5],[1,1,0,0,-5]];perimeter=orthogonalPerimeter;outlineConnect=0;targetShapes=umlLifeline;portConstraint=eastwest;newEdgeStyle={&quot;curved&quot;:0,&quot;rounded&quot;:0};labelPosition=left;verticalLabelPosition=middle;align=right;verticalAlign=middle;" vertex="1" parent="TdmkNz0lsqDMiO6AGIUz-7">
          <mxGeometry x="15" y="280" width="10" height="80" as="geometry" />
        </mxCell>
        <mxCell id="TdmkNz0lsqDMiO6AGIUz-38" value="Error" style="html=1;points=[[0,0,0,0,5],[0,1,0,0,-5],[1,0,0,0,5],[1,1,0,0,-5]];perimeter=orthogonalPerimeter;outlineConnect=0;targetShapes=umlLifeline;portConstraint=eastwest;newEdgeStyle={&quot;curved&quot;:0,&quot;rounded&quot;:0};labelPosition=left;verticalLabelPosition=middle;align=right;verticalAlign=middle;" vertex="1" parent="TdmkNz0lsqDMiO6AGIUz-7">
          <mxGeometry x="15" y="436" width="10" height="45" as="geometry" />
        </mxCell>
        <mxCell id="TdmkNz0lsqDMiO6AGIUz-39" value="" style="endArrow=classic;html=1;rounded=0;" edge="1" parent="TdmkNz0lsqDMiO6AGIUz-7" source="TdmkNz0lsqDMiO6AGIUz-38" target="TdmkNz0lsqDMiO6AGIUz-7">
          <mxGeometry width="50" height="50" relative="1" as="geometry">
            <mxPoint x="-110" y="340" as="sourcePoint" />
            <mxPoint x="-60" y="290" as="targetPoint" />
            <Array as="points">
              <mxPoint x="-50" y="440" />
              <mxPoint x="-50" y="360" />
              <mxPoint x="-50" y="310" />
              <mxPoint x="-50" y="290" />
            </Array>
          </mxGeometry>
        </mxCell>
        <mxCell id="TdmkNz0lsqDMiO6AGIUz-42" value="Measurement&lt;br&gt;&amp;nbsp; failure" style="edgeLabel;html=1;align=center;verticalAlign=middle;resizable=0;points=[];" vertex="1" connectable="0" parent="TdmkNz0lsqDMiO6AGIUz-39">
          <mxGeometry x="-0.0278" y="1" relative="1" as="geometry">
            <mxPoint as="offset" />
          </mxGeometry>
        </mxCell>
        <mxCell id="TdmkNz0lsqDMiO6AGIUz-45" value="" style="endArrow=classic;html=1;rounded=0;entryX=0;entryY=0;entryDx=0;entryDy=5;entryPerimeter=0;" edge="1" parent="TdmkNz0lsqDMiO6AGIUz-7" source="TdmkNz0lsqDMiO6AGIUz-38" target="TdmkNz0lsqDMiO6AGIUz-16">
          <mxGeometry width="50" height="50" relative="1" as="geometry">
            <mxPoint x="250" y="170" as="sourcePoint" />
            <mxPoint x="300" y="120" as="targetPoint" />
            <Array as="points">
              <mxPoint x="-90" y="440" />
              <mxPoint x="-90" y="290" />
              <mxPoint x="-90" y="165" />
            </Array>
          </mxGeometry>
        </mxCell>
        <mxCell id="TdmkNz0lsqDMiO6AGIUz-46" value="MQTT&lt;br&gt;Failure" style="edgeLabel;html=1;align=center;verticalAlign=middle;resizable=0;points=[];" vertex="1" connectable="0" parent="TdmkNz0lsqDMiO6AGIUz-45">
          <mxGeometry x="0.1548" y="-1" relative="1" as="geometry">
            <mxPoint as="offset" />
          </mxGeometry>
        </mxCell>
        <mxCell id="TdmkNz0lsqDMiO6AGIUz-47" value="" style="endArrow=classic;html=1;rounded=0;entryX=0;entryY=0;entryDx=0;entryDy=5;entryPerimeter=0;" edge="1" parent="TdmkNz0lsqDMiO6AGIUz-7" source="TdmkNz0lsqDMiO6AGIUz-38" target="TdmkNz0lsqDMiO6AGIUz-8">
          <mxGeometry width="50" height="50" relative="1" as="geometry">
            <mxPoint x="-150" y="510" as="sourcePoint" />
            <mxPoint x="-100" y="460" as="targetPoint" />
            <Array as="points">
              <mxPoint x="-120" y="440" />
              <mxPoint x="-120" y="55" />
            </Array>
          </mxGeometry>
        </mxCell>
        <mxCell id="TdmkNz0lsqDMiO6AGIUz-48" value="Network&lt;br&gt;Failure" style="edgeLabel;html=1;align=center;verticalAlign=middle;resizable=0;points=[];" vertex="1" connectable="0" parent="TdmkNz0lsqDMiO6AGIUz-47">
          <mxGeometry x="0.2801" y="-1" relative="1" as="geometry">
            <mxPoint as="offset" />
          </mxGeometry>
        </mxCell>
        <mxCell id="TdmkNz0lsqDMiO6AGIUz-15" value="" style="endArrow=classic;html=1;rounded=0;entryX=1;entryY=0;entryDx=0;entryDy=5;entryPerimeter=0;exitX=0;exitY=1;exitDx=0;exitDy=-5;exitPerimeter=0;dashed=1;" edge="1" parent="1" source="TdmkNz0lsqDMiO6AGIUz-9" target="TdmkNz0lsqDMiO6AGIUz-16">
          <mxGeometry width="50" height="50" relative="1" as="geometry">
            <mxPoint x="370" y="170" as="sourcePoint" />
            <mxPoint x="420" y="120" as="targetPoint" />
          </mxGeometry>
        </mxCell>
        <mxCell id="TdmkNz0lsqDMiO6AGIUz-17" value="Success" style="edgeLabel;html=1;align=center;verticalAlign=middle;resizable=0;points=[];" vertex="1" connectable="0" parent="TdmkNz0lsqDMiO6AGIUz-15">
          <mxGeometry x="0.0206" y="1" relative="1" as="geometry">
            <mxPoint as="offset" />
          </mxGeometry>
        </mxCell>
        <mxCell id="TdmkNz0lsqDMiO6AGIUz-25" value="Authenticate" style="html=1;verticalAlign=bottom;endArrow=block;curved=0;rounded=0;" edge="1" parent="1" source="TdmkNz0lsqDMiO6AGIUz-16" target="TdmkNz0lsqDMiO6AGIUz-20">
          <mxGeometry width="80" relative="1" as="geometry">
            <mxPoint x="209.81034482758605" y="309.9999999999999" as="sourcePoint" />
            <mxPoint x="429" y="309.9999999999999" as="targetPoint" />
          </mxGeometry>
        </mxCell>
        <mxCell id="TdmkNz0lsqDMiO6AGIUz-26" value="" style="endArrow=classic;html=1;rounded=0;dashed=1;" edge="1" parent="1" source="TdmkNz0lsqDMiO6AGIUz-20" target="TdmkNz0lsqDMiO6AGIUz-23">
          <mxGeometry width="50" height="50" relative="1" as="geometry">
            <mxPoint x="429" y="400" as="sourcePoint" />
            <mxPoint x="215" y="400" as="targetPoint" />
          </mxGeometry>
        </mxCell>
        <mxCell id="TdmkNz0lsqDMiO6AGIUz-27" value="Success" style="edgeLabel;html=1;align=center;verticalAlign=middle;resizable=0;points=[];" vertex="1" connectable="0" parent="TdmkNz0lsqDMiO6AGIUz-26">
          <mxGeometry x="0.0206" y="1" relative="1" as="geometry">
            <mxPoint as="offset" />
          </mxGeometry>
        </mxCell>
        <mxCell id="TdmkNz0lsqDMiO6AGIUz-34" value="" style="endArrow=none;html=1;rounded=0;elbow=vertical;startArrow=classic;startFill=1;endFill=0;dashed=1;" edge="1" parent="1" target="TdmkNz0lsqDMiO6AGIUz-10">
          <mxGeometry width="50" height="50" relative="1" as="geometry">
            <mxPoint x="389.40999999999997" y="439" as="sourcePoint" />
            <mxPoint x="389.40999999999997" y="494" as="targetPoint" />
            <Array as="points">
              <mxPoint x="360.40999999999997" y="439" />
              <mxPoint x="360.40999999999997" y="459" />
              <mxPoint x="360" y="530" />
            </Array>
          </mxGeometry>
        </mxCell>
        <mxCell id="TdmkNz0lsqDMiO6AGIUz-35" value="Success" style="edgeLabel;html=1;align=center;verticalAlign=middle;resizable=0;points=[];" vertex="1" connectable="0" parent="TdmkNz0lsqDMiO6AGIUz-34">
          <mxGeometry x="0.0148" y="1" relative="1" as="geometry">
            <mxPoint as="offset" />
          </mxGeometry>
        </mxCell>
        <mxCell id="TdmkNz0lsqDMiO6AGIUz-36" value="" style="endArrow=classic;html=1;rounded=0;dashed=1;" edge="1" parent="1">
          <mxGeometry width="50" height="50" relative="1" as="geometry">
            <mxPoint x="390" y="548" as="sourcePoint" />
            <mxPoint x="215" y="548" as="targetPoint" />
          </mxGeometry>
        </mxCell>
        <mxCell id="TdmkNz0lsqDMiO6AGIUz-37" value="Failure" style="edgeLabel;html=1;align=center;verticalAlign=middle;resizable=0;points=[];" vertex="1" connectable="0" parent="TdmkNz0lsqDMiO6AGIUz-36">
          <mxGeometry x="0.0206" y="1" relative="1" as="geometry">
            <mxPoint x="-40" as="offset" />
          </mxGeometry>
        </mxCell>
        <mxCell id="TdmkNz0lsqDMiO6AGIUz-49" value="IOT Hub" style="shape=umlLifeline;perimeter=lifelinePerimeter;whiteSpace=wrap;html=1;container=1;dropTarget=0;collapsible=0;recursiveResize=0;outlineConnect=0;portConstraint=eastwest;newEdgeStyle={&quot;curved&quot;:0,&quot;rounded&quot;:0};" vertex="1" parent="1">
          <mxGeometry x="770" y="100" width="100" height="500" as="geometry" />
        </mxCell>
        <mxCell id="TdmkNz0lsqDMiO6AGIUz-50" value="" style="html=1;points=[[0,0,0,0,5],[0,1,0,0,-5],[1,0,0,0,5],[1,1,0,0,-5]];perimeter=orthogonalPerimeter;outlineConnect=0;targetShapes=umlLifeline;portConstraint=eastwest;newEdgeStyle={&quot;curved&quot;:0,&quot;rounded&quot;:0};" vertex="1" parent="TdmkNz0lsqDMiO6AGIUz-49">
          <mxGeometry x="45" y="400" width="10" height="40" as="geometry" />
        </mxCell>
        <mxCell id="TdmkNz0lsqDMiO6AGIUz-51" value="" style="html=1;points=[[0,0,0,0,5],[0,1,0,0,-5],[1,0,0,0,5],[1,1,0,0,-5]];perimeter=orthogonalPerimeter;outlineConnect=0;targetShapes=umlLifeline;portConstraint=eastwest;newEdgeStyle={&quot;curved&quot;:0,&quot;rounded&quot;:0};" vertex="1" parent="TdmkNz0lsqDMiO6AGIUz-49">
          <mxGeometry x="45" y="205" width="10" height="85" as="geometry" />
        </mxCell>
        <mxCell id="TdmkNz0lsqDMiO6AGIUz-52" value="Network (Wifi)" style="shape=umlLifeline;perimeter=lifelinePerimeter;whiteSpace=wrap;html=1;container=1;dropTarget=0;collapsible=0;recursiveResize=0;outlineConnect=0;portConstraint=eastwest;newEdgeStyle={&quot;curved&quot;:0,&quot;rounded&quot;:0};" vertex="1" parent="1">
          <mxGeometry x="510.40999999999997" y="100" width="100" height="500" as="geometry" />
        </mxCell>
        <mxCell id="TdmkNz0lsqDMiO6AGIUz-54" value="" style="html=1;points=[[0,0,0,0,5],[0,1,0,0,-5],[1,0,0,0,5],[1,1,0,0,-5]];perimeter=orthogonalPerimeter;outlineConnect=0;targetShapes=umlLifeline;portConstraint=eastwest;newEdgeStyle={&quot;curved&quot;:0,&quot;rounded&quot;:0};" vertex="1" parent="TdmkNz0lsqDMiO6AGIUz-52">
          <mxGeometry x="45" y="100" width="8.75" height="80" as="geometry" />
        </mxCell>
        <mxCell id="TdmkNz0lsqDMiO6AGIUz-55" value="Authenticate" style="html=1;verticalAlign=bottom;endArrow=block;curved=0;rounded=0;" edge="1" parent="1" target="TdmkNz0lsqDMiO6AGIUz-52">
          <mxGeometry width="80" relative="1" as="geometry">
            <mxPoint x="400.40999999999997" y="210" as="sourcePoint" />
            <mxPoint x="540.41" y="210" as="targetPoint" />
          </mxGeometry>
        </mxCell>
        <mxCell id="TdmkNz0lsqDMiO6AGIUz-56" value="Failure" style="html=1;verticalAlign=bottom;endArrow=open;dashed=1;endSize=8;curved=0;rounded=0;" edge="1" parent="1" source="TdmkNz0lsqDMiO6AGIUz-54" target="TdmkNz0lsqDMiO6AGIUz-9">
          <mxGeometry relative="1" as="geometry">
            <mxPoint x="550.41" y="250" as="sourcePoint" />
            <mxPoint x="390.40999999999997" y="250" as="targetPoint" />
          </mxGeometry>
        </mxCell>
        <mxCell id="TdmkNz0lsqDMiO6AGIUz-57" value="Success" style="html=1;verticalAlign=bottom;endArrow=open;dashed=1;endSize=8;curved=0;rounded=0;" edge="1" parent="1">
          <mxGeometry relative="1" as="geometry">
            <mxPoint x="555.41" y="268" as="sourcePoint" />
            <mxPoint x="399.40999999999997" y="268" as="targetPoint" />
          </mxGeometry>
        </mxCell>
        <mxCell id="TdmkNz0lsqDMiO6AGIUz-58" value="Success" style="html=1;verticalAlign=bottom;endArrow=open;dashed=1;endSize=8;curved=0;rounded=0;" edge="1" parent="1">
          <mxGeometry relative="1" as="geometry">
            <mxPoint x="819.5" y="383" as="sourcePoint" />
            <mxPoint x="393.90999999999985" y="383" as="targetPoint" />
          </mxGeometry>
        </mxCell>
        <mxCell id="TdmkNz0lsqDMiO6AGIUz-59" value="Failure" style="html=1;verticalAlign=bottom;endArrow=open;dashed=1;endSize=8;curved=0;rounded=0;" edge="1" parent="1" source="TdmkNz0lsqDMiO6AGIUz-51" target="TdmkNz0lsqDMiO6AGIUz-6">
          <mxGeometry relative="1" as="geometry">
            <mxPoint x="556.41" y="362" as="sourcePoint" />
            <mxPoint x="391.40999999999997" y="362" as="targetPoint" />
          </mxGeometry>
        </mxCell>
        <mxCell id="TdmkNz0lsqDMiO6AGIUz-60" value="Authenticate" style="html=1;verticalAlign=bottom;endArrow=block;curved=0;rounded=0;" edge="1" parent="1" target="TdmkNz0lsqDMiO6AGIUz-49">
          <mxGeometry width="80" relative="1" as="geometry">
            <mxPoint x="401.40999999999997" y="322" as="sourcePoint" />
            <mxPoint x="561.41" y="322" as="targetPoint" />
          </mxGeometry>
        </mxCell>
        <mxCell id="TdmkNz0lsqDMiO6AGIUz-19" value="Publish" style="html=1;verticalAlign=bottom;endArrow=block;curved=0;rounded=0;" edge="1" parent="1">
          <mxGeometry width="80" relative="1" as="geometry">
            <mxPoint x="400.40999999999997" y="520" as="sourcePoint" />
            <mxPoint x="819.5" y="520" as="targetPoint" />
          </mxGeometry>
        </mxCell>
        <mxCell id="TdmkNz0lsqDMiO6AGIUz-62" value="Connect" style="html=1;verticalAlign=bottom;endArrow=block;curved=0;rounded=0;" edge="1" parent="1">
          <mxGeometry width="80" relative="1" as="geometry">
            <mxPoint x="215" y="190" as="sourcePoint" />
            <mxPoint x="389" y="190" as="targetPoint" />
          </mxGeometry>
        </mxCell>
        <mxCell id="TdmkNz0lsqDMiO6AGIUz-63" value="Measure" style="html=1;verticalAlign=bottom;endArrow=block;curved=0;rounded=0;" edge="1" parent="1">
          <mxGeometry width="80" relative="1" as="geometry">
            <mxPoint x="215" y="420" as="sourcePoint" />
            <mxPoint x="389" y="420" as="targetPoint" />
          </mxGeometry>
        </mxCell>
        <mxCell id="TdmkNz0lsqDMiO6AGIUz-64" value="Sensor" style="shape=umlLifeline;perimeter=lifelinePerimeter;whiteSpace=wrap;html=1;container=1;dropTarget=0;collapsible=0;recursiveResize=0;outlineConnect=0;portConstraint=eastwest;newEdgeStyle={&quot;curved&quot;:0,&quot;rounded&quot;:0};" vertex="1" parent="1">
          <mxGeometry x="640" y="100" width="100" height="500" as="geometry" />
        </mxCell>
        <mxCell id="TdmkNz0lsqDMiO6AGIUz-65" value="" style="html=1;points=[[0,0,0,0,5],[0,1,0,0,-5],[1,0,0,0,5],[1,1,0,0,-5]];perimeter=orthogonalPerimeter;outlineConnect=0;targetShapes=umlLifeline;portConstraint=eastwest;newEdgeStyle={&quot;curved&quot;:0,&quot;rounded&quot;:0};" vertex="1" parent="TdmkNz0lsqDMiO6AGIUz-64">
          <mxGeometry x="45" y="350" width="10" height="100" as="geometry" />
        </mxCell>
        <mxCell id="TdmkNz0lsqDMiO6AGIUz-67" value="Read" style="html=1;verticalAlign=bottom;endArrow=block;curved=0;rounded=0;" edge="1" parent="1">
          <mxGeometry width="80" relative="1" as="geometry">
            <mxPoint x="399.99999999999994" y="460" as="sourcePoint" />
            <mxPoint x="690" y="460" as="targetPoint" />
          </mxGeometry>
        </mxCell>
        <mxCell id="TdmkNz0lsqDMiO6AGIUz-68" value="Failure" style="html=1;verticalAlign=bottom;endArrow=open;dashed=1;endSize=8;curved=0;rounded=0;" edge="1" parent="1">
          <mxGeometry relative="1" as="geometry">
            <mxPoint x="685" y="543" as="sourcePoint" />
            <mxPoint x="400" y="543" as="targetPoint" />
          </mxGeometry>
        </mxCell>
        <mxCell id="TdmkNz0lsqDMiO6AGIUz-70" value="Success" style="html=1;verticalAlign=bottom;endArrow=open;dashed=1;endSize=8;curved=0;rounded=0;" edge="1" parent="1">
          <mxGeometry relative="1" as="geometry">
            <mxPoint x="685" y="492" as="sourcePoint" />
            <mxPoint x="400" y="492" as="targetPoint" />
          </mxGeometry>
        </mxCell>
      </root>
    </mxGraphModel>
  </diagram>
</mxfile>
